<svg height="512" viewBox="0 0 64 64" width="512" xmlns="http://www.w3.org/2000/svg"><g id="fingerprint_pass" data-name="fingerprint pass"><circle cx="59" cy="17" r="1"/><path d="m47 34a13 13 0 1 0 13 13 13.015 13.015 0 0 0 -13-13zm9.121 10.121-9.414 9.415a1 1 0 0 1 -1.414 0l-5.414-5.415a1 1 0 0 1 0-1.414l2.828-2.828a1 1 0 0 1 1.414 0l1.879 1.878 5.879-5.878a1 1 0 0 1 1.414 0l2.828 2.828a1 1 0 0 1 0 1.414z"/><path d="m21.24 59.48a21.936 21.936 0 0 1 -9.7-4.91 1.027 1.027 0 0 0 -1.41.1.963.963 0 0 0 -.25.72 1.014 1.014 0 0 0 .34.69 24 24 0 0 0 10.59 5.35.761.761 0 0 0 .21.03 1.006 1.006 0 0 0 .98-.79 1.5 1.5 0 0 0 .02-.22 1 1 0 0 0 -.78-.97z"/><path d="m4.38 42.1a1.016 1.016 0 0 0 -1.17-.8 1 1 0 0 0 -.79 1.17 24.092 24.092 0 0 0 5.019 10.75 1.032 1.032 0 0 0 .781.36.978.978 0 0 0 .63-.23 1 1 0 0 0 .37-.77.959.959 0 0 0 -.23-.63 22.026 22.026 0 0 1 -4.61-9.85z"/><path d="m35.53 57.83a.01.01 0 0 1 -.01.01l-.03.01a21.752 21.752 0 0 1 -9.49 2.15q-.555 0-1.141-.03a.986.986 0 0 0 -1.049.95 1 1 0 0 0 .95 1.05c.429.02.849.03 1.24.03a23.7 23.7 0 0 0 10.39-2.36 1 1 0 0 0 .57-.9 1.113 1.113 0 0 0 -.1-.44 1.018 1.018 0 0 0 -1.33-.47z"/><path d="m23.439 4.15a22.111 22.111 0 0 1 10.781 1.44.971.971 0 0 0 .37.07 1 1 0 0 0 .38-1.92 23.68 23.68 0 0 0 -8.97-1.74 23.192 23.192 0 0 0 -2.78.16 1.011 1.011 0 0 0 -.89.98.57.57 0 0 0 .01.13 1 1 0 0 0 1.099.88z"/><path d="m9.79 10.68a.99.99 0 0 0 .71-.29 22.087 22.087 0 0 1 9.359-5.52 1.028 1.028 0 0 0 .6-.48.967.967 0 0 0 .08-.76 1.007 1.007 0 0 0 -1.24-.68 24.023 24.023 0 0 0 -10.209 6.02 1 1 0 0 0 -.3.71 1.007 1.007 0 0 0 .29.71.99.99 0 0 0 .71.29z"/><path d="m3.05 24.17h.12a1 1 0 0 0 1-.87 21.971 21.971 0 0 1 3.95-10.13 1 1 0 0 0 -.23-1.39 1.023 1.023 0 0 0 -1.39.23 23.971 23.971 0 0 0 -4.32 11.04.57.57 0 0 0 -.01.13 1 1 0 0 0 .88.99z"/><path d="m3.02 39.48a1.006 1.006 0 0 0 .99-.99.037.037 0 0 0 -.01-.03v-11.46a1 1 0 0 0 -2 0v11.5a1.012 1.012 0 0 0 1 .98z"/><path d="m37.49 7.24a21.65 21.65 0 0 1 4.06 3.21 21.989 21.989 0 0 1 3.519 4.58 1 1 0 0 0 1.741-.98c0-.01 0-.01-.01-.01a23.931 23.931 0 0 0 -8.27-8.51 1.021 1.021 0 0 0 -1.37.33.98.98 0 0 0 -.15.52 1.013 1.013 0 0 0 .48.86z"/><path d="m46.63 18.34a21.936 21.936 0 0 1 1.37 7.66v3.31a1 1 0 1 0 2 0v-3.31a23.721 23.721 0 0 0 -1.5-8.35 1.009 1.009 0 0 0 -1.28-.59.991.991 0 0 0 -.66.94 1.246 1.246 0 0 0 .07.34z"/><path d="m11.97 11.75a19.8 19.8 0 0 0 -5.7 10.97.991.991 0 0 0 -.02.18 1 1 0 0 0 .84.97.86.86 0 0 0 .16.01.992.992 0 0 0 .99-.83 17.866 17.866 0 0 1 5.13-9.88.96.96 0 0 0 .3-.7.994.994 0 0 0 -.29-.71 1.014 1.014 0 0 0 -1.41-.01z"/><path d="m45 30.16a1 1 0 0 0 1-1v-3.16a19.757 19.757 0 0 0 -2.1-8.92 1 1 0 0 0 -1.9.43 1.052 1.052 0 0 0 .109.46 17.858 17.858 0 0 1 1.891 8.03v3.16a1 1 0 0 0 1 1z"/><path d="m38.72 13.28a14.934 14.934 0 0 1 1.36 1.52.99.99 0 0 0 .779.37 1.018 1.018 0 0 0 .631-.21 1 1 0 0 0 .369-.67 1.019 1.019 0 0 0 -.21-.74l-.009-.01a20.268 20.268 0 0 0 -1.51-1.68 19.922 19.922 0 0 0 -8.73-5.12c-.019-.01-.04-.01-.059-.02h-.021a1 1 0 0 0 -1.21.7.871.871 0 0 0 -.04.27 1 1 0 0 0 .731.96 17.981 17.981 0 0 1 7.919 4.63z"/><path d="m6.63 42.99a20 20 0 0 0 5.229 9.15c.441.44.9.85 1.361 1.24.009.01.03.02.04.03a.01.01 0 0 0 .01.01 1.026 1.026 0 0 0 .629.22.994.994 0 0 0 .771-.36.983.983 0 0 0 .229-.63 1.012 1.012 0 0 0 -.359-.78c-.44-.36-.86-.75-1.26-1.15a17.836 17.836 0 0 1 -4.72-8.24 1.006 1.006 0 0 0 -1.21-.72 1.036 1.036 0 0 0 -.621.46 1.063 1.063 0 0 0 -.109.76.01.01 0 0 1 .01.01z"/><path d="m6 38c0 .31.01.58.02.84a1 1 0 0 0 1 .96.076.076 0 0 0 .04-.01 1 1 0 0 0 .96-.98v-.05c-.02-.26-.02-.51-.02-.76v-11.15a1 1 0 0 0 -2 0z"/><path d="m27.09 8.03a1.016 1.016 0 0 0 1.059-.94 1.051 1.051 0 0 0 -.25-.72.965.965 0 0 0 -.689-.33c-.391-.03-.78-.04-1.22-.04a19.948 19.948 0 0 0 -10.75 3.14.985.985 0 0 0 -.46.84.956.956 0 0 0 .159.54.976.976 0 0 0 .841.46.944.944 0 0 0 .539-.16 17.96 17.96 0 0 1 9.681-2.82c.37 0 .729.01 1.09.03z"/><path d="m16.74 55.73a19.994 19.994 0 0 0 9.26 2.27 19.1 19.1 0 0 0 2.939-.22.99.99 0 0 0 .851-.98.757.757 0 0 0 -.01-.15 1.017 1.017 0 0 0 -1.131-.85 18.158 18.158 0 0 1 -10.979-1.84 1.027 1.027 0 0 0 -1.351.42 1.012 1.012 0 0 0 -.069.76 1 1 0 0 0 .49.59z"/><path d="m11.05 24.41a.991.991 0 0 0 -1.04.96c-.01.23-.01.44-.01.63v12.08a1 1 0 0 0 2-.01v-12.07c0-.17 0-.35.01-.55a1 1 0 0 0 -.27-.72.975.975 0 0 0 -.69-.32z"/><path d="m41 31.13a1 1 0 0 0 1-1v-4.13a15.943 15.943 0 0 0 -2.49-8.57c-.01-.02-.02-.03-.031-.05l-.009-.01a1.027 1.027 0 0 0 -1.38-.29.985.985 0 0 0 -.46.84 1.023 1.023 0 0 0 .16.54 13.934 13.934 0 0 1 2.21 7.54v4.13a1 1 0 0 0 1 1z"/><path d="m10.81 20.95a1.185 1.185 0 0 0 -.05.32 1.009 1.009 0 0 0 .69.95 1.115 1.115 0 0 0 .31.05 1.011 1.011 0 0 0 .95-.69 14.03 14.03 0 0 1 7.76-8.45.986.986 0 0 0 .54-.54 1.075 1.075 0 0 0 -.01-.77 1.031 1.031 0 0 0 -1.311-.53s0 .01-.009.01a16.079 16.079 0 0 0 -8.87 9.65z"/><path d="m19.609 52.57a1.008 1.008 0 0 0 .911-.57 1.082 1.082 0 0 0 .089-.44.994.994 0 0 0 -.569-.89 14.052 14.052 0 0 1 -3.931-2.78 13.891 13.891 0 0 1 -3.54-5.93 1.029 1.029 0 0 0 -1.25-.68 1 1 0 0 0 -.59.48.962.962 0 0 0 -.08.76 16.075 16.075 0 0 0 8.54 9.96.993.993 0 0 0 .42.09z"/><path d="m35.89 15.73a1 1 0 0 0 .75-.34 1.007 1.007 0 0 0 -.09-1.41 15.977 15.977 0 0 0 -12.52-3.86h-.02a1 1 0 0 0 -.87.99.682.682 0 0 0 .009.13 1.026 1.026 0 0 0 1.111.87h.02a13.888 13.888 0 0 1 10.94 3.37 1.03 1.03 0 0 0 .67.25z"/><path d="m15 29.65a1 1 0 0 0 -1 1v7.35a12.026 12.026 0 0 0 .89 4.56 1.016 1.016 0 0 0 .929.62 1.014 1.014 0 0 0 1-.99 1.335 1.335 0 0 0 -.069-.39h-.01l-.011-.03a10.137 10.137 0 0 1 -.729-3.77v-7.35a1 1 0 0 0 -1-1z"/><path d="m37 34.33a1 1 0 0 0 1-1v-7.33a12.118 12.118 0 0 0 -.9-4.58 1.016 1.016 0 0 0 -1.31-.54 1 1 0 0 0 -.62.91.967.967 0 0 0 .07.38.01.01 0 0 0 .01.01.076.076 0 0 0 .02.05 10.118 10.118 0 0 1 .73 3.77v7.33a1 1 0 0 0 1 1z"/><path d="m20.49 17.65a1 1 0 0 0 .43-.63 1.062 1.062 0 0 0 -.14-.76 1.031 1.031 0 0 0 -1.39-.28 11.985 11.985 0 0 0 -5.39 10.02v.79a1 1 0 0 0 2-.02v-.77a9.99 9.99 0 0 1 4.49-8.35z"/><path d="m34.77 19.28a1 1 0 0 0 .06-1.41c-.13-.14-.24-.25-.34-.36a12.075 12.075 0 0 0 -11.23-3.2 1.006 1.006 0 0 0 -.781.98.909.909 0 0 0 .031.23 1.009 1.009 0 0 0 1.2.74 10.369 10.369 0 0 1 2.29-.26 9.9 9.9 0 0 1 7.069 2.93c.091.09.191.19.29.3a1.031 1.031 0 0 0 .741.32.937.937 0 0 0 .67-.27z"/><path d="m17.16 46.12c.12.13.239.26.35.37a11.953 11.953 0 0 0 8.49 3.51 11.821 11.821 0 0 0 2.72-.31.993.993 0 0 0 .77-.97 1.983 1.983 0 0 0 -.02-.23 1.018 1.018 0 0 0 -1.2-.75 10.2 10.2 0 0 1 -2.27.26 9.93 9.93 0 0 1 -7.07-2.93 2.9 2.9 0 0 1 -.3-.31 1.038 1.038 0 0 0 -1.42-.06.953.953 0 0 0 -.32.69 1.006 1.006 0 0 0 .259.72z"/><path d="m19.939 20.78a7.99 7.99 0 0 0 -1.939 5.22v7.76a1 1 0 0 0 2 0v-7.76a6.086 6.086 0 0 1 1.45-3.92.973.973 0 0 0 .239-.65 1 1 0 0 0 -.339-.76 1.039 1.039 0 0 0 -1.411.11z"/><path d="m27.54 43.8a6 6 0 0 1 -7.54-5.73v-.07a1 1 0 0 0 -2 0v.09a8.031 8.031 0 0 0 8 7.91 7.854 7.854 0 0 0 2.05-.27 1 1 0 1 0 -.51-1.93z"/><path d="m32 25.98a1.006 1.006 0 0 0 1 .98h.01a1.012 1.012 0 0 0 .99-.99v-.08a8.034 8.034 0 0 0 -8-7.89 8.5 8.5 0 0 0 -2.01.25 1.008 1.008 0 0 0 -.61.46 1.058 1.058 0 0 0 -.11.76 1.016 1.016 0 0 0 1.22.72 5.891 5.891 0 0 1 1.51-.19 6.024 6.024 0 0 1 6 5.9z"/><path d="m30 26a4.005 4.005 0 0 0 -4-4 3.959 3.959 0 0 0 -3.72 2.53.956.956 0 0 0 .01.76 1 1 0 0 0 .55.54 1.02 1.02 0 0 0 1.3-.56 1.983 1.983 0 0 1 1.86-1.27 2.006 2.006 0 0 1 2 2v2.41a1 1 0 0 0 1 1l.03-.01a1 1 0 0 0 .97-.99z"/><path d="m23 27.44a1 1 0 0 0 -1 1v9.56a4.032 4.032 0 0 0 .29 1.49.985.985 0 0 0 .92.63 1.217 1.217 0 0 0 .38-.07 1 1 0 0 0 .55-1.31 2.028 2.028 0 0 1 -.14-.74v-9.56a1 1 0 0 0 -1-1z"/><path d="m30 31.97a1 1 0 0 0 -2 0v6.03a2.009 2.009 0 0 1 -1.98 2h-.02a1.05 1.05 0 0 0 -.71.29 1.028 1.028 0 0 0 -.29.71.99.99 0 0 0 1 1h.05a4.015 4.015 0 0 0 3.95-4z"/><path d="m46.707 47.878a1 1 0 0 1 -1.414 0l-1.879-1.878-1.414 1.414 4 4 8-8-1.414-1.414z"/><path d="m60 10h2v2h-2z"/><path d="m56 6h6v2h-6z"/><path d="m56 2h2v2h-2z"/><path d="m60 2h2v2h-2z"/><path d="m56 10h2v2h-2z"/><path d="m60 26h2v2h-2z"/><path d="m56 22h6v2h-6z"/><path d="m56 30h6v2h-6z"/><path d="m56 26h2v2h-2z"/></g></svg>