<svg id="Capa_1" enable-background="new 0 0 512 512" height="512" viewBox="0 0 512 512" width="512" xmlns="http://www.w3.org/2000/svg"><g><path d="m331 256c0-8.284-6.716-15-15-15-24.813 0-45-20.187-45-45 0-8.284-6.716-15-15-15s-15 6.716-15 15c0 24.813-20.187 45-45 45-8.284 0-15 6.716-15 15s6.716 15 15 15c24.813 0 45 20.187 45 45 0 8.284 6.716 15 15 15s15-6.716 15-15c0-24.813 20.187-45 45-45 8.284 0 15-6.716 15-15zm-75 15.052c-4.281-5.7-9.353-10.772-15.052-15.052 5.7-4.281 10.772-9.353 15.052-15.052 4.281 5.7 9.353 10.772 15.052 15.052-5.699 4.281-10.771 9.353-15.052 15.052z"/><path d="m256 151c8.284 0 15-6.716 15-15v-121c0-8.284-6.716-15-15-15s-15 6.716-15 15v121c0 8.284 6.716 15 15 15z"/><path d="m256 361c-8.284 0-15 6.716-15 15v121c0 8.284 6.716 15 15 15s15-6.716 15-15v-121c0-8.284-6.716-15-15-15z"/><path d="m174.663 94.726 22.477 55.631c3.108 7.693 11.858 11.387 19.527 8.289 7.681-3.103 11.392-11.846 8.289-19.527l-22.477-55.631c-3.103-7.681-11.848-11.392-19.527-8.289-7.681 3.103-11.392 11.846-8.289 19.527z"/><path d="m337.337 417.274-22.476-55.631c-3.104-7.682-11.85-11.392-19.527-8.289-7.681 3.103-11.392 11.845-8.289 19.527l22.476 55.631c3.108 7.694 11.858 11.387 19.527 8.289 7.681-3.103 11.391-11.846 8.289-19.527z"/><path d="m160.541 181.754c5.857 5.858 15.355 5.858 21.213 0s5.858-15.355 0-21.213l-84.853-84.853c-5.857-5.858-15.355-5.858-21.213 0s-5.858 15.355 0 21.213z"/><path d="m351.459 330.246c-5.857-5.858-15.355-5.858-21.213 0s-5.858 15.355 0 21.213l84.854 84.853c5.857 5.858 15.355 5.858 21.213 0s5.858-15.355 0-21.213z"/><path d="m151 256c0-8.284-6.716-15-15-15h-121c-8.284 0-15 6.716-15 15s6.716 15 15 15h121c8.284 0 15-6.716 15-15z"/><path d="m497 241h-121c-8.284 0-15 6.716-15 15s6.716 15 15 15h121c8.284 0 15-6.716 15-15s-6.716-15-15-15z"/><path d="m181.753 330.246c-5.857-5.858-15.355-5.857-21.213 0l-84.853 84.853c-5.858 5.858-5.858 15.355 0 21.213 5.857 5.857 15.355 5.858 21.213 0l84.853-84.853c5.858-5.857 5.858-15.355 0-21.213z"/><path d="m330.246 181.754c5.856 5.858 15.355 5.858 21.213 0l84.854-84.853c5.858-5.858 5.858-15.355 0-21.213-5.856-5.858-15.354-5.858-21.213 0l-84.854 84.853c-5.858 5.857-5.858 15.355 0 21.213z"/><path d="m340.286 464.616c-7.681 3.103-11.392 11.846-8.289 19.527s11.846 11.392 19.527 8.289 11.392-11.846 8.289-19.527-11.845-11.392-19.527-8.289z"/><ellipse cx="166.094" cy="33.476" rx="15" ry="15" transform="matrix(.904 -.427 .427 .904 1.621 74.177)"/><path d="m151.4 195.305-55.23-23.444c-7.624-3.237-16.432.321-19.668 7.947s.321 16.432 7.947 19.669l55.23 23.444c7.589 3.222 16.417-.285 19.668-7.947 3.237-7.627-.321-16.432-7.947-19.669z"/><path d="m360.6 316.695 55.229 23.444c7.592 3.222 16.418-.287 19.669-7.947 3.237-7.626-.321-16.432-7.946-19.669l-55.229-23.444c-7.625-3.237-16.432.321-19.669 7.947s.321 16.432 7.946 19.669z"/><ellipse cx="476.921" cy="349.775" rx="15" ry="15" transform="matrix(.703 -.711 .711 .703 -107.167 442.717)"/><ellipse cx="35.079" cy="162.225" rx="15" ry="15" transform="matrix(.79 -.613 .613 .79 -92.061 55.534)"/><path d="m139.119 287.045-55.631 22.476c-7.681 3.103-11.392 11.846-8.289 19.527 3.108 7.693 11.858 11.388 19.527 8.289l55.631-22.476c7.681-3.103 11.392-11.846 8.289-19.527-3.104-7.682-11.849-11.392-19.527-8.289z"/><path d="m372.881 224.955 55.632-22.476c7.681-3.103 11.392-11.846 8.289-19.527-3.104-7.682-11.85-11.391-19.527-8.289l-55.632 22.476c-7.681 3.103-11.392 11.846-8.289 19.527 3.108 7.69 11.855 11.389 19.527 8.289z"/><path d="m484.143 180.002c7.681-3.103 11.392-11.846 8.289-19.527s-11.846-11.392-19.527-8.289-11.392 11.846-8.289 19.527c3.104 7.682 11.846 11.393 19.527 8.289z"/><path d="m27.857 331.998c-7.681 3.103-11.392 11.846-8.289 19.527s11.846 11.392 19.527 8.289 11.392-11.846 8.289-19.527c-3.104-7.682-11.846-11.393-19.527-8.289z"/><path d="m214.973 352.653c-7.624-3.237-16.432.321-19.668 7.947l-23.444 55.23c-3.237 7.625.321 16.431 7.947 19.668 7.589 3.222 16.417-.285 19.668-7.947l23.444-55.23c3.237-7.625-.321-16.431-7.947-19.668z"/><path d="m297.026 159.347c7.592 3.222 16.418-.287 19.669-7.946l23.444-55.23c3.237-7.626-.321-16.432-7.946-19.669-7.625-3.236-16.432.321-19.669 7.946l-23.444 55.23c-3.237 7.626.321 16.432 7.946 19.669z"/><path d="m343.915 48.886c7.626 3.237 16.432-.321 19.668-7.947 3.237-7.626-.321-16.432-7.947-19.669s-16.432.321-19.669 7.947c-3.236 7.627.322 16.432 7.948 19.669z"/><path d="m168.085 463.114c-7.626-3.237-16.432.321-19.668 7.947-3.237 7.626.321 16.432 7.947 19.669s16.432-.321 19.669-7.947c3.236-7.627-.322-16.432-7.948-19.669z"/></g></svg>