<svg id="Capa_1" enable-background="new 0 0 512 512" height="512" viewBox="0 0 512 512" width="512" xmlns="http://www.w3.org/2000/svg"><g><path d="m420.212 69.32h-328.424v371.36h328.424zm-30 191.36v30h-63.746c-13.161 0-23.869-10.708-23.869-23.87v-32.49c0-24.813-20.187-45-45-45s-45 20.187-45 45v32.489c0 29.704 24.166 53.87 53.87 53.87h123.746v30h-123.747c-46.246 0-83.87-37.624-83.87-83.87v-32.489c0-41.355 33.645-75 75-75s75 33.645 75 75v26.359h57.616zm-112.032 30h-11.714c-13.162 0-23.87-10.708-23.87-23.87v-32.49c0-8.271 6.729-15 15-15s15 6.729 15 15v32.489c.001 8.567 2.011 16.672 5.584 23.871zm112.032-191.36v31.09c-9.574-11.178-20.764-21.27-33.271-29.864-.603-.415-1.213-.819-1.821-1.226zm-227.373 0c-16.003 11.266-29.918 25.304-41.05 41.407v-41.407zm-41.051 311.36v-47.55c12.505 18.722 28.54 34.893 47.151 47.549h-47.151zm144.68 0c-79.331 0-143.872-64.54-143.872-143.87v-32.49c0-74.439 60.561-135 135-135 58.283 0 113.628 37.267 132.615 88.944v42.416h-27.678c-1.926-56.217-48.26-101.359-104.938-101.359-57.897 0-105 47.103-105 105v32.489c0 62.788 51.082 113.87 113.87 113.87h123.746v30z"/><path d="m60.001 30h55.32v-30h-85.32v85.32h30z"/><path d="m451.999 85.32h30v-85.32h-85.32v30h55.32z"/><path d="m451.999 426.68v55.32h-55.32v30h85.32v-85.32z"/><path d="m60.001 426.68h-30v85.32h85.32v-30h-55.32z"/></g></svg>