<svg id="Layer_3" enable-background="new 0 0 64 64" height="512" viewBox="0 0 64 64" width="512" xmlns="http://www.w3.org/2000/svg"><path d="m56 1h-48c-3.86 0-7 3.14-7 7v48c0 3.86 3.14 7 7 7h48c3.86 0 7-3.14 7-7v-48c0-3.86-3.14-7-7-7zm5 55c0 2.757-2.243 5-5 5h-48c-2.757 0-5-2.243-5-5v-48c0-2.757 2.243-5 5-5h48c2.757 0 5 2.243 5 5z"/><path d="m54 7h-44c-1.654 0-3 1.346-3 3v44c0 1.654 1.346 3 3 3h44c1.654 0 3-1.346 3-3v-44c0-1.654-1.346-3-3-3zm1 47c0 .551-.449 1-1 1h-44c-.551 0-1-.449-1-1v-44c0-.551.449-1 1-1h44c.551 0 1 .449 1 1z"/><path d="m52 45h-6c-.552 0-1 .448-1 1v6c0 .552.448 1 1 1h6c.552 0 1-.448 1-1v-6c0-.552-.448-1-1-1zm-1 6h-4v-4h4z"/><path d="m52 35h-6c-.552 0-1 .448-1 1v6c0 .552.448 1 1 1h6c.552 0 1-.448 1-1v-6c0-.552-.448-1-1-1zm-1 6h-4v-4h4z"/><path d="m52 25h-6c-.552 0-1 .448-1 1v6c0 .552.448 1 1 1h6c.552 0 1-.448 1-1v-6c0-.552-.448-1-1-1zm-1 6h-4v-4h4z"/><path d="m32.898 33.484c2.542-2.384 4.102-5.762 4.102-9.484 0-7.168-5.832-13-13-13s-13 5.832-13 13c0 6.115 4.196 11.313 10.078 12.658.302 1.338 1.495 2.342 2.922 2.342s2.62-1.004 2.922-2.342c1.614-.369 3.102-1.023 4.41-1.913l4.961 4.961c.187.189.442.294.707.294h6v-2h-5.586zm-8.898 3.516c-.551 0-1-.449-1-1s.449-1 1-1 1 .449 1 1-.449 1-1 1zm2.674-2.332c-.493-.984-1.5-1.668-2.674-1.668s-2.181.684-2.674 1.668c-4.872-1.208-8.326-5.563-8.326-10.668 0-6.065 4.935-11 11-11s11 4.935 11 11c0 3.172-1.34 6.049-3.518 8.068l-2.847-2.847c.701-.621 1.274-1.383 1.684-2.254 1.503-.161 2.681-1.422 2.681-2.967s-1.178-2.805-2.68-2.968c-1.143-2.432-3.588-4.032-6.32-4.032-3.86 0-7 3.14-7 7s3.14 7 7 7c1.035 0 2.026-.241 2.928-.658l2.955 2.955c-.972.613-2.048 1.083-3.209 1.371zm3.326-9.668c-.551 0-1-.449-1-1s.449-1 1-1 1 .449 1 1-.449 1-1 1zm-1.672 1.49c-.88 1.527-2.52 2.51-4.328 2.51-2.757 0-5-2.243-5-5s2.243-5 5-5c1.81 0 3.447.982 4.328 2.511-.8.539-1.328 1.453-1.328 2.489s.528 1.95 1.328 2.49z"/><path d="m11 51h16v2h-16z"/><path d="m29 51h2v2h-2z"/><path d="m43 11h10v2h-10z"/><path d="m39 11h2v2h-2z"/></svg>